<svg width="22" height="22" viewBox="0 0 22 22" fill="none" xmlns="http://www.w3.org/2000/svg">
<path d="M19.5 1H2.5C2.10218 1 1.72064 1.15804 1.43934 1.43934C1.15804 1.72064 1 2.10218 1 2.5V19.5C1 19.8978 1.15804 20.2794 1.43934 20.5607C1.72064 20.842 2.10218 21 2.5 21H19.5C19.8978 21 20.2794 20.842 20.5607 20.5607C20.842 20.2794 21 19.8978 21 19.5V2.5C21 2.10218 20.842 1.72064 20.5607 1.43934C20.2794 1.15804 19.8978 1 19.5 1Z" stroke="black" stroke-width="2" stroke-linejoin="round"/>
<path d="M5 8.52698C6.66233 6.52698 8.66233 5.52698 11 5.52698C13.3373 5.52698 15.3373 6.52698 17 8.52698" stroke="black" stroke-width="2" stroke-linecap="round"/>
<path d="M11 14.5C11.3978 14.5 11.7794 14.342 12.0607 14.0607C12.342 13.7794 12.5 13.3978 12.5 13C12.5 12.6022 12.342 12.2206 12.0607 11.9393C11.7794 11.658 11.3978 11.5 11 11.5C10.6022 11.5 10.2206 11.658 9.93934 11.9393C9.65804 12.2206 9.5 12.6022 9.5 13C9.5 13.3978 9.65804 13.7794 9.93934 14.0607C10.2206 14.342 10.6022 14.5 11 14.5Z" fill="black"/>
<path d="M8.5 9.5L11.004 13" stroke="black" stroke-width="2" stroke-linecap="round"/>
</svg>
