<svg width="24" height="24" viewBox="0 0 24 24" fill="none" xmlns="http://www.w3.org/2000/svg">
<path d="M13.23 2.00299C12.2249 1.96461 11.2226 2.13237 10.2848 2.49594C9.34704 2.8595 8.49358 3.41117 7.77701 4.11699C7.05374 4.81406 6.47911 5.65038 6.08777 6.57553C5.69644 7.50067 5.4965 8.49548 5.50001 9.49999V9.52999L3.59601 13.574C3.52427 13.7263 3.49217 13.8943 3.50268 14.0624C3.5132 14.2305 3.56598 14.3932 3.65615 14.5354C3.74631 14.6776 3.87093 14.7948 4.01845 14.876C4.16597 14.9572 4.33161 14.9999 4.50001 15H5.50001V17C5.50001 17.5304 5.71072 18.0391 6.0858 18.4142C6.46087 18.7893 6.96958 19 7.50001 19H8.50001V21C8.50001 21.2652 8.60537 21.5196 8.7929 21.7071C8.98044 21.8946 9.23479 22 9.50001 22C9.76523 22 10.0196 21.8946 10.2071 21.7071C10.3947 21.5196 10.5 21.2652 10.5 21V19C10.7652 19 11.0196 18.8946 11.2071 18.7071C11.3947 18.5196 11.5 18.2652 11.5 18C11.5 17.7348 11.3947 17.4804 11.2071 17.2929C11.0196 17.1053 10.7652 17 10.5 17H7.50001V14C7.50001 13.7348 7.39465 13.4804 7.20712 13.2929C7.01958 13.1053 6.76523 13 6.50001 13H6.07601L7.41601 10.156C7.48453 10.0109 7.51712 9.85136 7.51101 9.69099L7.50001 9.49999C7.49776 8.76346 7.64456 8.03409 7.93156 7.35578C8.21855 6.67747 8.63982 6.06424 9.17001 5.55299C9.69989 5.04122 10.3267 4.64049 11.0136 4.37432C11.7005 4.10814 12.4336 3.9819 13.17 4.00299C14.6302 4.09414 15.9991 4.74473 16.9918 5.81942C17.9845 6.89411 18.5247 8.31015 18.5 9.77299L16.533 17.277C16.4866 17.4522 16.4886 17.6368 16.539 17.811L17.539 21.277C17.5991 21.4854 17.7253 21.6687 17.8987 21.7991C18.072 21.9295 18.2831 22 18.5 22C18.5938 21.9997 18.687 21.9862 18.777 21.96C19.0317 21.8865 19.2468 21.715 19.375 21.483C19.5033 21.2511 19.5342 20.9777 19.461 20.723L18.537 17.523L20.467 10.256C20.489 10.1724 20.5001 10.0864 20.5 9.99999V9.77199C20.5209 7.7903 19.7768 5.87687 18.4227 4.42982C17.0686 2.98278 15.2087 2.11355 13.23 2.00299Z" fill="black"/>
</svg>
